<svg xmlns="http://www.w3.org/2000/svg" width="398" height="550" fill="none" viewBox="0 0 398 550"><path fill="#000" d="M39 125H359V542C359 546.418 355.418 550 351 550H47C42.5817 550 39 546.418 39 542V125Z"/><path fill="#000" d="M0 8C0 3.58172 3.58172 0 8 0H390C394.418 0 398 3.58172 398 8V127C398 131.418 394.418 135 390 135H7.99999C3.58171 135 0 131.418 0 127V8Z"/><path fill="#FF5733" d="M50 135H348V535C348 537.209 346.209 539 344 539H54C51.7909 539 50 537.209 50 535V135Z"/><path fill="#FF5733" d="M11 14.0001C11 11.791 12.7909 10.0001 15 10.0001H384C386.209 10.0001 388 11.791 388 14.0001V120C388 122.209 386.209 124 384 124H15C12.7909 124 11 122.209 11 120V14.0001Z"/><path fill="url(#paint0_linear_102_49)" d="M11 14.0001C11 11.791 12.7909 10.0001 15 10.0001H384C386.209 10.0001 388 11.791 388 14.0001V120C388 122.209 386.209 124 384 124H15C12.7909 124 11 122.209 11 120V14.0001Z"/><path fill="url(#paint1_linear_102_49)" d="M50 134H348V535C348 537.209 346.209 539 344 539H54C51.7909 539 50 537.209 50 535V134Z"/><path fill="#fff" d="M108 142H156V535H108V142Z"/><path fill="#fff" fill-opacity=".25" d="M300 135H348V535C348 537.209 346.209 539 344 539H300V135Z"/><path fill="#fff" fill-opacity=".5" d="M96 142H108V535H96V142Z"/><path fill="#fff" d="M84 10.0001H133V120H84V10.0001Z"/><path fill="#fff" fill-opacity=".25" d="M339 10.0001H384C386.209 10.0001 388 11.791 388 14.0001V120C388 122.209 386.209 124 384 124H339V10.0001Z"/><path fill="#fff" fill-opacity=".5" d="M71.9995 10.0001H83.9995V120H71.9995V10.0001Z"/><path fill="#AAA" d="M108 534.529H156V539.019H108V534.529Z"/><path fill="#AAA" d="M95.9927 534.529H107.982V539.019H95.9927V534.529Z" opacity=".5"/><path fill="#AAA" d="M84.0029 119.887H133.007V124.027H84.0029V119.887Z"/><path fill="#AAA" d="M71.9883 119.887H83.978V124.027H71.9883V119.887Z" opacity=".5"/><defs><linearGradient id="paint0_linear_102_49" x1="335" x2="137" y1="67" y2="67" gradientUnits="userSpaceOnUse"><stop stop-color="#D62600"/><stop offset="1" stop-color="#FF5733" stop-opacity="0"/></linearGradient><linearGradient id="paint1_linear_102_49" x1="306.106" x2="149.597" y1="336.5" y2="336.5" gradientUnits="userSpaceOnUse"><stop stop-color="#D62600"/><stop offset="1" stop-color="#FF5733" stop-opacity="0"/></linearGradient></defs></svg>